<?xml version="1.0" encoding="UTF-8"?>
<svg id="Layer_1" xmlns="http://www.w3.org/2000/svg" viewBox="0 0 1258.89 415.99">
  <defs>
    <style>
      .cls-1 {
        fill: #879c3b;
      }

      .cls-2 {
        fill: #fef6e0;
      }
    </style>
  </defs>
  <path class="cls-1" d="M370.42,122.78c-24.13-55.34-69.32-82.68-82.2-89.92-40.12-22.54-77.88-24.78-94.9-24.78-49.51,0-99.01,18.84-136.7,56.53C4.77,116.46-14,192.58,10.92,267.36c1.81,5.43,4,10.75,6.55,15.87,31.18,62.64,87.46,101.7,150.94,109.81,2.37.3,3.4-2.88,1.3-4.02-7.21-3.89-14.18-8.33-20.86-13.34-35.44-26.59-58.35-65.46-64.5-109.46-10.37-74.15,41.45-143.25,115.53-154.04,29.49-4.29,58.83,3.17,82.62,21.01,23.79,17.85,39.17,43.95,43.31,73.48,7.03,50.27-28.1,97.11-78.32,104.42-20.25,2.94-40.4-2.18-56.73-14.43-16.34-12.26-26.9-30.17-29.74-50.45-4.89-34.98,19.56-67.58,54.51-72.67,14.34-2.08,28.6,1.54,40.16,10.22,11.57,8.68,19.04,21.36,21.05,35.71,3.52,25.2-14.09,48.68-39.27,52.35-10.55,1.53-21.05-1.14-29.56-7.52-8.51-6.39-14.02-15.72-15.49-26.28-1.23-8.76-4.4-6.38-2.92,4.21,1.77,12.64,8.34,23.8,18.51,31.43,10.16,7.62,22.71,10.81,35.32,8.97,34.61-5.04,58.82-37.33,53.98-71.97-3.06-21.9-14.46-41.24-32.08-54.46-17.61-13.21-39.36-18.74-61.21-15.56-58.46,8.51-99.37,63.06-91.18,121.59,2.71,19.39,9.36,37.57,19.41,53.65,4.81,7.7,14.96,23.65,33.87,36.79,31.11,21.61,64.47,20.76,76.51,20.29,44.03-1.74,75.32-24.71,87.39-34.96,58.3-49.52,71.25-144.49,40.4-215.23Z"/>
  <g>
    <path class="cls-2" d="M555.05,274.69c0,3.98-12.48,5.97-37.42,5.97l-22.29-1.19c-13.27-1.06-19.91-2.92-19.91-5.57V6.77c0-4.51,13.27-6.77,39.81-6.77s39.81,2.26,39.81,6.77v101.92l48.57-101.92c1.85-3.71,12.47-5.57,31.85-5.57,35.29,0,53.88,3.05,55.73,9.16,0,.54-.14,1.06-.4,1.59l-69.27,125,80.42,111.07c0,.53-2.53,2.79-7.56,6.77-12.21,10.62-26.54,18.98-43,25.08-5.04,1.85-10.09,2.79-15.13,2.79l-9.55-.8c-8.5-2.12-15.13-7.56-19.91-16.32l-45.38-86.79h-6.37v95.94Z"/>
    <path class="cls-2" d="M732.4,256.78c-16.59-18.31-24.88-43.65-24.88-76.04s8.29-57.73,24.88-76.04c16.58-18.31,38.95-27.47,67.08-27.47s50.42,9.16,66.88,27.47c16.45,18.31,24.68,43.66,24.68,76.04s-8.23,57.73-24.68,76.04c-16.46,18.31-38.75,27.47-66.88,27.47s-50.5-9.16-67.08-27.47ZM799.68,143.72c-15,0-22.49,12.21-22.49,36.63s7.5,36.62,22.49,36.62,22.49-12.2,22.49-36.62-7.5-36.63-22.49-36.63Z"/>
    <path class="cls-2" d="M1001.32,279.87c0,1.85-12.08,2.79-36.23,2.79-24.15-.54-36.23-1.59-36.23-3.18v-132.17h-10.75c-4.25,0-7.63-2.59-10.15-7.76-2.53-5.18-3.78-11.61-3.78-19.31,0-28.66,8.49-43,25.48-43,11.94,0,21.9,3.65,29.86,10.95,7.96,7.3,11.94,15.59,11.94,24.88,5.57-10.88,13.07-19.57,22.49-26.08,9.42-6.5,19.04-9.75,28.86-9.75,15.39,0,24.68,3.98,27.87,11.94.8,2.13,1.19,5.24,1.19,9.36s-1.26,11.48-3.78,22.09c-2.53,10.62-5.11,18.31-7.76,23.09-2.66,4.78-4.25,7.17-4.78,7.17s-2.99-1-7.37-2.99c-4.38-1.99-8.3-2.99-11.74-2.99-10.09,0-15.13,7.96-15.13,23.89v111.07Z"/>
    <path class="cls-2" d="M1064.61,83.6c0-2.92,11.41-4.38,34.24-4.38s34.24,1.46,34.24,4.38v116.25c0,13.27,4.24,19.9,12.74,19.9,6.37,0,13.54-2.79,21.5-8.36v-127.79c0-2.65,11.28-3.98,33.84-3.98s33.84,1.33,33.84,3.98v130.58h10.35c9.02,0,13.54,8.63,13.54,25.88,0,8.76-1.86,17.65-5.57,26.67-5.31,11.68-12.48,17.52-21.5,17.52-17.78,0-30.92-7.3-39.41-21.9l-.4.4c-16.19,14.33-33.58,21.5-52.15,21.5-25.75,0-44.72-6.43-56.93-19.31-12.21-12.87-18.31-34.17-18.31-63.9v-117.44Z"/>
  </g>
  <g>
    <path class="cls-2" d="M502.74,393.81c0,1.09-3.42,1.64-10.27,1.64l-6.12-.33c-3.64-.29-5.46-.8-5.46-1.53v-73.31c0-1.24,3.64-1.86,10.93-1.86s10.93.62,10.93,1.86v27.97l13.33-27.97c.51-1.02,3.42-1.53,8.74-1.53,9.69,0,14.79.84,15.3,2.51,0,.15-.04.29-.11.44l-19.01,34.31,22.07,30.48c0,.15-.69.76-2.08,1.86-3.35,2.91-7.28,5.21-11.8,6.88-1.38.51-2.77.76-4.15.76l-2.62-.22c-2.33-.58-4.15-2.08-5.46-4.48l-12.46-23.82h-1.75v26.33Z"/>
    <path class="cls-2" d="M601.07,392.39c-4.59,2.7-10.49,4.04-17.7,4.04s-13.29-2.46-18.25-7.38c-4.95-4.92-7.43-11.73-7.43-20.43s2.38-15.71,7.16-21.03c4.77-5.32,10.8-7.98,18.08-7.98s12.91,1.86,16.88,5.57c3.97,3.71,5.95,8.23,5.95,13.55,0,11.8-6.77,17.7-20.32,17.7h-7.54c0,2.18.6,3.7,1.8,4.53,1.2.84,2.97,1.26,5.3,1.26,5.1,0,9.94-1.16,14.53-3.5.07-.07.4.44.98,1.53,1.75,3.13,2.62,5.77,2.62,7.92s-.69,3.55-2.08,4.21ZM587.41,360.82c0-3.06-1.49-4.59-4.48-4.59-1.38,0-2.57.42-3.55,1.26-.98.84-1.48,2.06-1.48,3.66v3.39h5.9c2.4,0,3.61-1.24,3.61-3.71Z"/>
    <path class="cls-2" d="M665.86,392.39c-4.59,2.7-10.49,4.04-17.7,4.04s-13.29-2.46-18.25-7.38c-4.95-4.92-7.43-11.73-7.43-20.43s2.38-15.71,7.16-21.03c4.77-5.32,10.8-7.98,18.08-7.98s12.91,1.86,16.88,5.57c3.97,3.71,5.96,8.23,5.96,13.55,0,11.8-6.78,17.7-20.32,17.7h-7.54c0,2.18.6,3.7,1.8,4.53,1.2.84,2.97,1.26,5.3,1.26,5.1,0,9.94-1.16,14.53-3.5.07-.07.4.44.98,1.53,1.75,3.13,2.62,5.77,2.62,7.92s-.69,3.55-2.08,4.21ZM652.2,360.82c0-3.06-1.49-4.59-4.48-4.59-1.38,0-2.57.42-3.55,1.26-.98.84-1.48,2.06-1.48,3.66v3.39h5.9c2.4,0,3.61-1.24,3.61-3.71Z"/>
    <path class="cls-2" d="M712.84,415.23c0,.51-3.11.77-9.34.77s-9.34-.26-9.34-.77v-56.27h-3.71c-1.75,0-2.95-1.6-3.61-4.81-.22-1.02-.33-2.33-.33-3.93s.51-3.5,1.53-5.68c1.46-3.2,3.79-4.81,6.99-4.81,2.11,0,4.06.49,5.85,1.47,1.78.98,3.02,1.89,3.71,2.73.69.84,1.04,1.33,1.04,1.47,4.88-3.79,10.16-5.68,15.84-5.68s10.56,2.2,14.64,6.61c4.08,4.41,6.12,11.22,6.12,20.43s-2.04,16.35-6.12,21.42c-4.08,5.06-9.25,7.59-15.51,7.59-2.84,0-5.43-.15-7.76-.44v19.88ZM717.32,358.85c-1.24,0-2.44.4-3.61,1.2v19.34c1.24.15,2.24.22,3,.22h1.8c2.99-.29,4.48-4.11,4.48-11.47,0-6.19-1.89-9.29-5.68-9.29Z"/>
    <path class="cls-2" d="M801.67,376.55v-38.9h-7.76c-1.24,0-2.11-1.57-2.62-4.7-.22-1.53-.33-3.09-.33-4.7s.11-3.17.33-4.7c.51-3.13,1.38-4.7,2.62-4.7h36.71c1.24,0,2.08,1.57,2.51,4.7.29,1.53.44,3.1.44,4.7s-.15,3.17-.44,4.7c-.44,3.13-1.28,4.7-2.51,4.7h-7.32v38.9h7.65c1.24,0,2.11,1.57,2.62,4.7.29,1.53.44,3.1.44,4.7s-.15,3.17-.44,4.7c-.51,3.13-1.38,4.7-2.62,4.7h-36.82c-1.24,0-2.08-1.57-2.51-4.7-.29-1.53-.44-3.09-.44-4.7s.14-3.17.44-4.7c.44-3.13,1.27-4.7,2.51-4.7h7.54Z"/>
    <path class="cls-2" d="M877.6,394.69c0,.87-3.06,1.31-9.18,1.31-7.28-.29-10.93-.76-10.93-1.42v-38.68h-5.57c-1.46,0-2.18-2.51-2.18-7.54,0-1.31.13-2.91.38-4.81.25-1.89.78-2.84,1.58-2.84h5.79v-9.61c0-1.46,3.08-2.19,9.23-2.19s9.23.58,9.23,1.75v6.99l.11,3.06h9.29c1.24,0,1.86,2.55,1.86,7.65s-.62,7.65-1.86,7.65h-7.76v38.68Z"/>
    <path class="cls-2" d="M977.57,372.51l.22-14.86c0-1.02,1.05-1.69,3.17-2.02,2.11-.33,3.86-.49,5.25-.49l4.26.33c2.77.44,4.15,1.2,4.15,2.29l-.44,34.2c-1.46,1.02-4.39,2.02-8.79,3-4.41.98-9.45,1.48-15.13,1.48-10.56,0-19.08-3.42-25.57-10.27-6.48-6.85-9.72-16.9-9.72-30.16,0-11.29,3.17-20.47,9.51-27.53,6.34-7.06,15.11-10.6,26.33-10.6,5.1,0,9.71.49,13.82,1.48,4.11.98,6.94,2.31,8.47,3.99.07.58.11,1.68.11,3.28s-.55,3.88-1.64,6.83c-1.09,2.95-2.33,5.15-3.71,6.61-1.38,1.46-2.39,2.19-3,2.19s-1.28-.27-1.97-.82c-.69-.55-2.06-1.13-4.1-1.75-2.04-.62-4.01-.93-5.9-.93-4.52,0-8.18,1.46-10.98,4.37-2.8,2.91-4.21,7.43-4.21,13.55s1.44,10.76,4.32,13.93c2.88,3.17,6.19,4.75,9.94,4.75s5.63-.95,5.63-2.84Z"/>
    <path class="cls-2" d="M1040.06,395.23c0,.51-3.32.76-9.94.76-6.63-.15-9.94-.44-9.94-.87v-36.27h-2.95c-1.17,0-2.09-.71-2.79-2.13-.69-1.42-1.04-3.19-1.04-5.3,0-7.87,2.33-11.8,6.99-11.8,3.28,0,6.01,1,8.19,3,2.19,2,3.28,4.28,3.28,6.83,1.53-2.99,3.59-5.37,6.17-7.16,2.58-1.78,5.23-2.68,7.92-2.68,4.22,0,6.77,1.09,7.65,3.28.22.58.33,1.44.33,2.57s-.35,3.15-1.04,6.06c-.69,2.91-1.4,5.03-2.13,6.34-.73,1.31-1.17,1.97-1.31,1.97s-.82-.27-2.02-.82c-1.2-.55-2.28-.82-3.22-.82-2.77,0-4.15,2.19-4.15,6.56v30.48Z"/>
    <path class="cls-2" d="M1112.39,392.39c-4.59,2.7-10.49,4.04-17.7,4.04s-13.29-2.46-18.25-7.38c-4.95-4.92-7.43-11.73-7.43-20.43s2.38-15.71,7.16-21.03c4.77-5.32,10.8-7.98,18.08-7.98s12.91,1.86,16.88,5.57c3.97,3.71,5.96,8.23,5.96,13.55,0,11.8-6.77,17.7-20.32,17.7h-7.54c0,2.18.6,3.7,1.8,4.53,1.2.84,2.97,1.26,5.3,1.26,5.1,0,9.94-1.16,14.53-3.5.07-.07.4.44.98,1.53,1.75,3.13,2.62,5.77,2.62,7.92s-.69,3.55-2.08,4.21ZM1098.74,360.82c0-3.06-1.49-4.59-4.48-4.59-1.38,0-2.57.42-3.55,1.26-.98.84-1.47,2.06-1.47,3.66v3.39h5.9c2.4,0,3.61-1.24,3.61-3.71Z"/>
    <path class="cls-2" d="M1177.18,392.39c-4.59,2.7-10.49,4.04-17.7,4.04s-13.29-2.46-18.25-7.38c-4.95-4.92-7.43-11.73-7.43-20.43s2.38-15.71,7.16-21.03c4.77-5.32,10.8-7.98,18.08-7.98s12.91,1.86,16.88,5.57c3.97,3.71,5.96,8.23,5.96,13.55,0,11.8-6.77,17.7-20.32,17.7h-7.54c0,2.18.6,3.7,1.8,4.53,1.2.84,2.97,1.26,5.3,1.26,5.1,0,9.94-1.16,14.53-3.5.07-.07.4.44.98,1.53,1.75,3.13,2.62,5.77,2.62,7.92s-.69,3.55-2.08,4.21ZM1163.53,360.82c0-3.06-1.49-4.59-4.48-4.59-1.38,0-2.57.42-3.55,1.26-.98.84-1.47,2.06-1.47,3.66v3.39h5.9c2.4,0,3.61-1.24,3.61-3.71Z"/>
    <path class="cls-2" d="M1223.51,394.69c0,.51-2.62.76-7.87.76-7.28-.22-10.93-.62-10.93-1.2v-35.4h-2.84c-1.89,0-3.13-1.6-3.71-4.81-.15-.95-.22-1.89-.22-2.84,0-2.26.44-4.52,1.31-6.77,1.31-3.2,3.35-4.81,6.12-4.81s5.24.66,7.43,1.97c2.19,1.31,3.64,2.62,4.37,3.93,4.59-3.93,10.05-5.9,16.39-5.9s10.93,1.71,13.77,5.13c2.84,3.42,4.26,9.03,4.26,16.83v32.78c0,.87-3.11,1.31-9.34,1.31s-9.34-.44-9.34-1.31v-31.58c0-3.64-1.28-5.46-3.82-5.46-.73,0-1.75.31-3.06.93-1.31.62-2.15,1.08-2.51,1.37v35.07Z"/>
  </g>
</svg>