<?xml version="1.0" encoding="UTF-8"?>
<svg id="Layer_1" xmlns="http://www.w3.org/2000/svg" viewBox="0 0 394.96 394.25">
  <defs>
    <style>
      .cls-1 {
        fill: #fef6e0;
      }
    </style>
  </defs>
  <path class="cls-1" d="M0,209.45c0-8.21,0-16.43,0-24.64.46-3.54.95-7.08,1.39-10.62,6.74-53.58,31.15-97.56,73.35-131.12C120.04,7.05,171.98-6.12,229.12,2.59c37.74,5.75,70.97,21.87,99.42,47.32,34.06,30.47,55.37,68.21,63.39,113.25,1.28,7.17,2.03,14.43,3.03,21.65v24.64c-.22.99-.56,1.97-.64,2.97-2.33,30.41-11.07,58.88-26.97,84.9-31.34,51.26-76.62,82.77-135.87,93.92-7.16,1.35-14.44,2.03-21.66,3.02h-24.69c-4.82-.59-9.65-1.11-14.45-1.8-39.3-5.62-74.03-21.33-103.71-47.65-34.29-30.4-55.71-68.21-63.9-113.33C1.75,224.19,1.01,216.8,0,209.45ZM249.89,89.61c-16.61.69-33.11-1.87-49.36,1.57-15.28,3.24-25.77,12.66-30.44,27.52-2.08,6.62-2.72,13.8-3.18,20.78-.52,7.89-.12,15.84-.12,24.21h-22.26v40.56h22.45v113.82h47.52v-114.13h32.11c1.39-13.57,2.74-26.66,4.14-40.28h-36.27c0-6.9,0-13.3,0-19.71,0-12.76,2.26-15.02,15-15.02,6.76,0,13.52,0,20.42,0v-39.33Z"/>
</svg>