<?xml version="1.0" encoding="UTF-8"?>
<svg id="Layer_1" xmlns="http://www.w3.org/2000/svg" viewBox="0 0 394.08 394.22">
  <defs>
    <style>
      .cls-1 {
        fill: #fef6e0;
      }
    </style>
  </defs>
  <path class="cls-1" d="M184.8,0c8.21,0,16.43,0,24.64,0,2.52.31,5.05.66,7.57.93,41.5,4.5,78.49,19.87,109.56,47.78,51.99,46.7,74.33,105.39,65.72,174.68-6.65,53.52-32.55,97.07-75.26,129.96-43.12,33.21-92.24,45.91-146.14,39.09-36.72-4.65-69.59-18.99-98.18-42.56-37.54-30.96-60.93-70.43-69.64-118.4C1.74,224.18,1.01,216.78,0,209.43,0,201.22,0,193.01,0,184.8c.31-2.52.65-5.05.93-7.58,4.56-41.76,20.35-78.68,48.2-110.15C79.76,32.45,117.91,10.93,163.54,2.97c7.04-1.23,14.17-1.99,21.26-2.97ZM197.13,310.89c18.68-.7,37.6-.6,56.34-2.34,22.45-2.09,39.58-13.28,49.5-34.13,4.42-9.29,6.36-19.26,6.52-29.46.4-26.43.63-52.86.64-79.29,0-8.32-.58-16.67-1.41-24.96-2.89-28.77-22.38-50.23-50.78-54.31-14.27-2.05-28.89-2.3-43.35-2.3-24.62,0-49.31-.13-73.83,1.64-22.46,1.62-39.62,13.15-49.51,34.02-4.34,9.16-6.33,19.01-6.48,29.08-.4,26.68-.63,53.37-.65,80.06,0,8.07.58,16.16,1.37,24.19,3,30.76,24.86,52.97,55.73,55.55,18.51,1.54,37.15,1.54,55.93,2.25Z"/>
  <path class="cls-1" d="M103.96,197.13c.49-17.18.56-34.38,1.59-51.53,1.42-23.65,16.43-39.3,40.1-39.93,34.21-.9,68.47-.92,102.68-.01,24.01.64,39.6,16.17,40.23,40.07.91,34.21.91,68.48,0,102.69-.63,23.88-16.27,38.93-40.18,40.29-34.34,1.95-68.73,1.93-103.06-.05-14.88-.86-27.24-7.04-34.61-20.82-4.59-8.6-5.69-18.06-5.83-27.59-.22-14.36-.06-28.73-.06-43.1-.28,0-.57,0-.85,0ZM255.19,197.07c-.04-32.09-25.82-57.92-57.93-58.03-32.18-.12-58.27,25.92-58.24,58.11.03,32.06,25.84,57.92,57.93,58.04,32.16.13,58.27-25.93,58.23-58.12ZM271.06,136.86c.07-7.46-5.78-13.54-13.17-13.69-7.66-.15-13.8,5.76-13.87,13.36-.07,7.51,5.73,13.54,13.15,13.68,7.66.14,13.82-5.77,13.89-13.34Z"/>
  <path class="cls-1" d="M196.88,234.83c-20.71-.11-37.54-17.11-37.48-37.86.06-20.87,17.21-37.77,38.15-37.57,20.71.19,37.43,17.26,37.29,38.05-.15,20.71-17.18,37.49-37.95,37.39Z"/>
</svg>