<?xml version="1.0" encoding="UTF-8"?>
<svg id="Layer_1" xmlns="http://www.w3.org/2000/svg" viewBox="0 0 383.52 383.62">
  <defs>
    <style>
      .cls-1 {
        fill: #fef6e0;
      }
    </style>
  </defs>
  <path class="cls-1" d="M179.73,0c7.99,0,15.98,0,23.98,0,.96.21,1.91.54,2.88.61,29.87,2.23,57.82,10.81,83.3,26.49,49.51,30.48,80.01,74.33,90.69,131.65,1.3,6.96,1.98,14.04,2.94,21.06v23.98c-.56,4.57-1.02,9.15-1.69,13.7-7.58,51.51-31.56,93.76-72.62,125.71-42.13,32.78-90.25,45.5-143.1,38.62-45.19-5.89-83.69-25.84-114.57-59.38C10.75,278.11-5.71,225.55,1.74,165.89c4.78-38.29,20.54-72.01,46.19-100.86C77.72,31.5,114.76,10.61,159.04,2.89c6.86-1.19,13.79-1.94,20.69-2.89ZM304.2,289.82c.07-1.32.17-2.3.17-3.29,0-25.71.06-51.43-.05-77.14-.02-5.1-.39-10.23-1.03-15.3-3.4-27.36-19.79-44.55-46.17-47.58-19.09-2.19-35.25,3.59-46.64,19.96-.38.55-.9,1-2.04,2.26v-19.12h-46.38v140.11h46.46v-4.66c0-19.1-.02-38.2.01-57.3.01-6.99,0-13.98.3-20.96.38-8.46,4.65-14.94,11.43-19.65,13.48-9.37,30.87-3.38,35.32,12.34,1.47,5.2,1.96,10.81,2.01,16.24.21,23.34.09,46.68.09,70.03,0,1.32,0,2.64,0,4.07h46.51ZM89.51,149.34v140.36h46.53v-4.66c0-42.7,0-85.4,0-128.1,0-1.37-.14-2.76.03-4.12.37-2.89-.9-3.57-3.63-3.54-12.48.13-24.97.06-37.45.06-1.73,0-3.45,0-5.47,0ZM86.59,105.93c-.01,14.23,10.86,24.39,26.05,24.33,15.31-.05,26.43-10.18,26.45-24.1.03-14.19-10.86-24.45-26-24.49-15.59-.04-26.49,9.94-26.51,24.26Z"/>
</svg>