<?xml version="1.0" encoding="UTF-8"?>
<svg id="Layer_1" xmlns="http://www.w3.org/2000/svg" viewBox="0 0 391.73 390.96">
  <defs>
    <style>
      .cls-1 {
        fill: #fef6e0;
      }
    </style>
  </defs>
  <path class="cls-1" d="M391.73,183.27v24.44c-.57,4.65-1.04,9.32-1.72,13.96-7.71,52.34-32.09,95.33-73.84,127.87-43.07,33.58-92.29,46.53-146.41,39.64-39.48-5.02-74.26-21.14-103.93-47.65-33.71-30.11-54.77-67.45-62.78-111.97-1.3-7.23-2.04-14.57-3.04-21.85,0-8.15,0-16.29,0-24.44.31-2.5.65-5.01.93-7.51,4.53-41.41,20.22-78.02,47.9-109.24C79.26,32.18,117.16,10.84,162.5,2.95,169.5,1.73,176.58.97,183.62,0c8.16,0,16.32,0,24.48,0,.98.21,1.95.55,2.95.62,30.5,2.28,59.05,11.01,85.06,27,50.56,31.07,81.7,75.75,92.61,134.18,1.32,7.1,2.02,14.31,3.01,21.47ZM200.99,84.11c0,1.82,0,3.44,0,5.06-.02,48.48-.04,96.95-.08,145.43,0,2.41-.11,4.84-.35,7.24-1.71,16.98-17.03,29.95-34.38,29.15-17.07-.78-31.24-15.11-31.52-31.9-.3-17.79,12.84-32.65,30.16-33.76,4.35-.28,8.76.37,13.17.6v-36.09c-7.95-1.44-15.64-1.09-23.34.32-38.34,7.01-63.81,44.47-55.63,81.85,8.47,38.66,47.4,62.82,85.52,53.05,32.07-8.22,53.18-35.26,53.18-68.33,0-25.06-.17-50.13-.26-75.19,0-1.32,0-2.65,0-4.65,17.24,12.49,35.57,19.06,56.36,19.03v-35.65c-34.13-3.74-53.04-22.38-56.93-56.15h-35.91Z"/>
</svg>