<?xml version="1.0" encoding="UTF-8"?>
<svg id="Layer_1" xmlns="http://www.w3.org/2000/svg" viewBox="0 0 387.64 388.22">
  <defs>
    <style>
      .cls-1 {
        fill: #fef6e0;
      }
    </style>
  </defs>
  <path class="cls-1" d="M387.64,182.17v24.24c-.21.98-.55,1.94-.63,2.93-2.55,33.25-12.82,63.95-31.43,91.59-30.89,45.86-73.61,74.12-128.07,84.29-7.15,1.34-14.43,2.02-21.65,3.01h-24.24c-1.1-.22-2.18-.56-3.29-.65-24.69-1.88-48.16-8.29-70.29-19.32C33.83,331.24-8.26,254.14,1.36,171.42,7.78,116.17,33.97,71.55,78.51,38.52c62.83-46.59,144.78-51.29,212.06-12.06,51.72,30.15,83.02,75.42,94.09,134.4,1.32,7.04,2,14.2,2.98,21.31ZM82.35,308.06c5.39,0,9.9-.29,14.35.09,3.98.34,6.42-1.21,8.93-4.15,23.19-27.17,46.52-54.21,69.82-81.28.8-.93,1.66-1.82,2.66-2.92,1.06,1.52,1.92,2.74,2.77,3.98,18.64,27.14,37.3,54.26,55.89,81.44,1.32,1.93,2.6,2.93,5.13,2.91,19.94-.12,39.88-.06,59.82-.08.91,0,1.82-.2,3.18-.36-30.19-43.94-60.07-87.45-89.94-130.94,27.65-32.15,55-63.96,82.99-96.51-5.73,0-10.5.22-15.23-.08-3.26-.2-5.32.98-7.38,3.4-22.14,25.9-44.39,51.71-66.61,77.54-.78.91-1.62,1.76-2.56,2.78-1.35-1.93-2.51-3.57-3.65-5.23-17.29-25.16-34.59-50.31-51.84-75.5-1.3-1.9-2.58-2.99-5.13-2.98-19.94.12-39.88.06-59.82.08-.91,0-1.82.21-3.21.38,29.08,42.34,57.85,84.22,86.77,126.31-28.84,33.54-57.59,66.97-86.95,101.12Z"/>
  <path class="cls-1" d="M278.06,294.02c-9.96,0-19.15.11-28.34-.13-1.23-.03-2.73-1.57-3.58-2.77-22.75-32.42-45.43-64.88-68.12-97.33-22.04-31.53-44.07-63.06-66.1-94.59-.79-1.13-1.55-2.27-2.6-3.8,1.22-.14,2.12-.32,3.02-.33,7.95-.02,15.9-.14,23.84.09,1.57.04,3.69,1.02,4.56,2.26,45.26,64.54,90.41,129.15,135.57,193.76.49.7.89,1.46,1.74,2.85Z"/>
</svg>